<?xml version="1.0" encoding="UTF-8" standalone="no"?>
<svg
   viewBox="-2 -2 26 28"
   version="1.1"
   id="svg4"
   sodipodi:docname="reshot-icon-edit-Q9X5K68PDE.svg"
   inkscape:version="1.1.1 (3bf5ae0d25, 2021-09-20)"
   xmlns:inkscape="http://www.inkscape.org/namespaces/inkscape"
   xmlns:sodipodi="http://sodipodi.sourceforge.net/DTD/sodipodi-0.dtd"
   xmlns="http://www.w3.org/2000/svg"
   xmlns:svg="http://www.w3.org/2000/svg">
  <defs
     id="defs8" />
  <sodipodi:namedview
     id="namedview6"
     pagecolor="#ffffff"
     bordercolor="#666666"
     borderopacity="1.0"
     inkscape:pageshadow="2"
     inkscape:pageopacity="0.0"
     inkscape:pagecheckerboard="0"
     showgrid="false"
     inkscape:zoom="34.333333"
     inkscape:cx="12.014563"
     inkscape:cy="14.34466"
     inkscape:window-width="1920"
     inkscape:window-height="1009"
     inkscape:window-x="1432"
     inkscape:window-y="-8"
     inkscape:window-maximized="1"
     inkscape:current-layer="svg4" />
  <path
     d="M20.548,3.452a1.542,1.542,0,0,1,0,2.182L12.912,13.27,9.639,14.361l1.091-3.273,7.636-7.636A1.542,1.542,0,0,1,20.548,3.452ZM4,21H19a1,1,0,0,0,1-1V12a1,1,0,0,0-2,0v7H5V6h7a1,1,0,0,0,0-2H4A1,1,0,0,0,3,5V20A1,1,0,0,0,4,21Z"
     id="path2"
     style="fill:#ffffff" />
  <path
     style="fill:#ffffff;fill-opacity:0;stroke-width:0.0291262"
     d="M 3.7230342,20.943649 C 3.4664227,20.863118 3.209622,20.63327 3.0920648,20.378903 L 3.0291262,20.242718 V 12.495146 4.7475728 l 0.0854,-0.1686547 C 3.2185546,4.3734766 3.4005676,4.2002925 3.6211123,4.0969051 l 0.1652955,-0.077488 4.1329313,-0.00787 c 3.6647349,-0.00698 4.1530679,-0.00272 4.3106799,0.037537 0.28593,0.073037 0.509204,0.2519648 0.653527,0.5237278 0.06815,0.1283288 0.0773,0.1785055 0.07703,0.4223301 -2.62e-4,0.229298 -0.01174,0.2998314 -0.06704,0.4117318 -0.107575,0.2176845 -0.252499,0.3637307 -0.464516,0.4681129 l -0.194755,0.095883 -3.6195566,0.00773 -3.6195568,0.00773 v 6.5092633 6.509263 h 6.5092634 6.509263 l 0.0077,-3.619556 0.0077,-3.619557 0.09588,-0.194755 c 0.104382,-0.212017 0.250428,-0.356941 0.468113,-0.464516 0.1119,-0.0553 0.182433,-0.06678 0.411731,-0.06704 0.244211,-2.62e-4 0.294113,0.0089 0.425003,0.0778 0.200092,0.105389 0.430091,0.361965 0.497302,0.554767 0.05086,0.145886 0.05342,0.354742 0.05342,4.347423 v 4.194175 l -0.07749,0.165296 c -0.103387,0.220544 -0.276572,0.402557 -0.482013,0.506585 l -0.168655,0.0854 -7.703883,0.0055 c -6.2832354,0.0045 -7.7263124,-0.0016 -7.8255098,-0.0327 z"
     id="path3167" />
  <path
     style="fill:#ffffff;fill-opacity:0;stroke-width:0.0291262"
     d="M 3.7230342,20.943649 C 3.4664227,20.863118 3.209622,20.63327 3.0920648,20.378903 L 3.0291262,20.242718 V 12.495146 4.7475728 l 0.0854,-0.1686547 C 3.2185546,4.3734766 3.4005676,4.2002925 3.6211123,4.0969051 l 0.1652955,-0.077488 4.1329313,-0.00787 c 3.6647349,-0.00698 4.1530679,-0.00272 4.3106799,0.037537 0.28593,0.073037 0.509204,0.2519648 0.653527,0.5237278 0.06815,0.1283288 0.0773,0.1785055 0.07703,0.4223301 -2.62e-4,0.229298 -0.01174,0.2998314 -0.06704,0.4117318 -0.107575,0.2176845 -0.252499,0.3637307 -0.464516,0.4681129 l -0.194755,0.095883 -3.6195566,0.00773 -3.6195568,0.00773 v 6.5092633 6.509263 h 6.5092634 6.509263 l 0.0077,-3.619556 0.0077,-3.619557 0.09588,-0.194755 c 0.104382,-0.212017 0.250428,-0.356941 0.468113,-0.464516 0.1119,-0.0553 0.182433,-0.06678 0.411731,-0.06704 0.244211,-2.62e-4 0.294113,0.0089 0.425003,0.0778 0.200092,0.105389 0.430091,0.361965 0.497302,0.554767 0.05086,0.145886 0.05342,0.354742 0.05342,4.347423 v 4.194175 l -0.07749,0.165296 c -0.103387,0.220544 -0.276572,0.402557 -0.482013,0.506585 l -0.168655,0.0854 -7.703883,0.0055 c -6.2832354,0.0045 -7.7263124,-0.0016 -7.8255098,-0.0327 z"
     id="path3206" />
  <path
     style="fill:#ffffff;fill-opacity:0;stroke-width:0.0291262"
     d="M 3.7230342,20.943649 C 3.4664227,20.863118 3.209622,20.63327 3.0920648,20.378903 L 3.0291262,20.242718 V 12.495146 4.7475728 l 0.0854,-0.1686547 C 3.2185546,4.3734766 3.4005676,4.2002925 3.6211123,4.0969051 l 0.1652955,-0.077488 4.1329313,-0.00787 c 3.6647349,-0.00698 4.1530679,-0.00272 4.3106799,0.037537 0.28593,0.073037 0.509204,0.2519648 0.653527,0.5237278 0.06815,0.1283288 0.0773,0.1785055 0.07703,0.4223301 -2.62e-4,0.229298 -0.01174,0.2998314 -0.06704,0.4117318 -0.107575,0.2176845 -0.252499,0.3637307 -0.464516,0.4681129 l -0.194755,0.095883 -3.6195566,0.00773 -3.6195568,0.00773 v 6.5092633 6.509263 h 6.5092634 6.509263 l 0.0077,-3.619556 0.0077,-3.619557 0.09588,-0.194755 c 0.104382,-0.212017 0.250428,-0.356941 0.468113,-0.464516 0.1119,-0.0553 0.182433,-0.06678 0.411731,-0.06704 0.244211,-2.62e-4 0.294113,0.0089 0.425003,0.0778 0.200092,0.105389 0.430091,0.361965 0.497302,0.554767 0.05086,0.145886 0.05342,0.354742 0.05342,4.347423 v 4.194175 l -0.07749,0.165296 c -0.103387,0.220544 -0.276572,0.402557 -0.482013,0.506585 l -0.168655,0.0854 -7.703883,0.0055 c -6.2832354,0.0045 -7.7263124,-0.0016 -7.8255098,-0.0327 z"
     id="path5934" />
  <path
     style="fill:#ffffff;fill-opacity:0;stroke-width:0.0291262"
     d="M 3.7230342,20.943649 C 3.4664227,20.863118 3.209622,20.63327 3.0920648,20.378903 L 3.0291262,20.242718 V 12.495146 4.7475728 l 0.0854,-0.1686547 C 3.2185546,4.3734766 3.4005676,4.2002925 3.6211123,4.0969051 l 0.1652955,-0.077488 4.1329313,-0.00787 c 3.6647349,-0.00698 4.1530679,-0.00272 4.3106799,0.037537 0.28593,0.073037 0.509204,0.2519648 0.653527,0.5237278 0.06815,0.1283288 0.0773,0.1785055 0.07703,0.4223301 -2.62e-4,0.229298 -0.01174,0.2998314 -0.06704,0.4117318 -0.107575,0.2176845 -0.252499,0.3637307 -0.464516,0.4681129 l -0.194755,0.095883 -3.6195566,0.00773 -3.6195568,0.00773 v 6.5092633 6.509263 h 6.5092634 6.509263 l 0.0077,-3.619556 0.0077,-3.619557 0.09588,-0.194755 c 0.104382,-0.212017 0.250428,-0.356941 0.468113,-0.464516 0.1119,-0.0553 0.182433,-0.06678 0.411731,-0.06704 0.244211,-2.62e-4 0.294113,0.0089 0.425003,0.0778 0.200092,0.105389 0.430091,0.361965 0.497302,0.554767 0.05086,0.145886 0.05342,0.354742 0.05342,4.347423 v 4.194175 l -0.07749,0.165296 c -0.103387,0.220544 -0.276572,0.402557 -0.482013,0.506585 l -0.168655,0.0854 -7.703883,0.0055 c -6.2832354,0.0045 -7.7263124,-0.0016 -7.8255098,-0.0327 z"
     id="path6010" />
  <path
     style="fill:#ffffff;fill-opacity:0;stroke-width:0.0291262"
     d="M 3.7230342,20.943649 C 3.4664227,20.863118 3.209622,20.63327 3.0920648,20.378903 L 3.0291262,20.242718 V 12.495146 4.7475728 l 0.0854,-0.1686547 C 3.2185546,4.3734766 3.4005676,4.2002925 3.6211123,4.0969051 l 0.1652955,-0.077488 4.1329313,-0.00787 c 3.6647349,-0.00698 4.1530679,-0.00272 4.3106799,0.037537 0.28593,0.073037 0.509204,0.2519648 0.653527,0.5237278 0.06815,0.1283288 0.0773,0.1785055 0.07703,0.4223301 -2.62e-4,0.229298 -0.01174,0.2998314 -0.06704,0.4117318 -0.107575,0.2176845 -0.252499,0.3637307 -0.464516,0.4681129 l -0.194755,0.095883 -3.6195566,0.00773 -3.6195568,0.00773 v 6.5092633 6.509263 h 6.5092634 6.509263 l 0.0077,-3.619556 0.0077,-3.619557 0.09588,-0.194755 c 0.104382,-0.212017 0.250428,-0.356941 0.468113,-0.464516 0.1119,-0.0553 0.182433,-0.06678 0.411731,-0.06704 0.244211,-2.62e-4 0.294113,0.0089 0.425003,0.0778 0.200092,0.105389 0.430091,0.361965 0.497302,0.554767 0.05086,0.145886 0.05342,0.354742 0.05342,4.347423 v 4.194175 l -0.07749,0.165296 c -0.103387,0.220544 -0.276572,0.402557 -0.482013,0.506585 l -0.168655,0.0854 -7.703883,0.0055 c -6.2832354,0.0045 -7.7263124,-0.0016 -7.8255098,-0.0327 z"
     id="path6049" />
  <path
     style="fill:#ffffff;fill-opacity:0;stroke-width:0.0291262"
     d="M 3.7230342,20.943649 C 3.4664227,20.863118 3.209622,20.63327 3.0920648,20.378903 L 3.0291262,20.242718 V 12.495146 4.7475728 l 0.0854,-0.1686547 C 3.2185546,4.3734766 3.4005676,4.2002925 3.6211123,4.0969051 l 0.1652955,-0.077488 4.1329313,-0.00787 c 3.6647349,-0.00698 4.1530679,-0.00272 4.3106799,0.037537 0.28593,0.073037 0.509204,0.2519648 0.653527,0.5237278 0.06815,0.1283288 0.0773,0.1785055 0.07703,0.4223301 -2.62e-4,0.229298 -0.01174,0.2998314 -0.06704,0.4117318 -0.107575,0.2176845 -0.252499,0.3637307 -0.464516,0.4681129 l -0.194755,0.095883 -3.6195566,0.00773 -3.6195568,0.00773 v 6.5092633 6.509263 h 6.5092634 6.509263 l 0.0077,-3.619556 0.0077,-3.619557 0.09588,-0.194755 c 0.104382,-0.212017 0.250428,-0.356941 0.468113,-0.464516 0.1119,-0.0553 0.182433,-0.06678 0.411731,-0.06704 0.244211,-2.62e-4 0.294113,0.0089 0.425003,0.0778 0.200092,0.105389 0.430091,0.361965 0.497302,0.554767 0.05086,0.145886 0.05342,0.354742 0.05342,4.347423 v 4.194175 l -0.07749,0.165296 c -0.103387,0.220544 -0.276572,0.402557 -0.482013,0.506585 l -0.168655,0.0854 -7.703883,0.0055 c -6.2832354,0.0045 -7.7263124,-0.0016 -7.8255098,-0.0327 z"
     id="path6088" />
  <path
     style="fill:#ffffff;fill-opacity:0;stroke-width:0.0291262"
     d="M 3.7230342,20.943649 C 3.4664227,20.863118 3.209622,20.63327 3.0920648,20.378903 L 3.0291262,20.242718 V 12.495146 4.7475728 l 0.0854,-0.1686547 C 3.2185546,4.3734766 3.4005676,4.2002925 3.6211123,4.0969051 l 0.1652955,-0.077488 4.1329313,-0.00787 c 3.6647349,-0.00698 4.1530679,-0.00272 4.3106799,0.037537 0.28593,0.073037 0.509204,0.2519648 0.653527,0.5237278 0.06815,0.1283288 0.0773,0.1785055 0.07703,0.4223301 -2.62e-4,0.229298 -0.01174,0.2998314 -0.06704,0.4117318 -0.107575,0.2176845 -0.252499,0.3637307 -0.464516,0.4681129 l -0.194755,0.095883 -3.6195566,0.00773 -3.6195568,0.00773 v 6.5092633 6.509263 h 6.5092634 6.509263 l 0.0077,-3.619556 0.0077,-3.619557 0.09588,-0.194755 c 0.104382,-0.212017 0.250428,-0.356941 0.468113,-0.464516 0.1119,-0.0553 0.182433,-0.06678 0.411731,-0.06704 0.244211,-2.62e-4 0.294113,0.0089 0.425003,0.0778 0.200092,0.105389 0.430091,0.361965 0.497302,0.554767 0.05086,0.145886 0.05342,0.354742 0.05342,4.347423 v 4.194175 l -0.07749,0.165296 c -0.103387,0.220544 -0.276572,0.402557 -0.482013,0.506585 l -0.168655,0.0854 -7.703883,0.0055 c -6.2832354,0.0045 -7.7263124,-0.0016 -7.8255098,-0.0327 z"
     id="path6127" />
  <path
     style="fill:#000000;fill-opacity:0;stroke-width:0.0291262"
     d="m 9.684466,14.293982 c 0,-0.01185 0.2391462,-0.739391 0.531436,-1.616749 l 0.531436,-1.595196 3.859341,-3.8561747 c 2.54988,-2.547788 3.913694,-3.8902402 4.019535,-3.9565756 0.298079,-0.1868205 0.471288,-0.2361061 0.830097,-0.2361998 0.277384,-7.26e-5 0.346817,0.010247 0.517292,0.076883 0.437828,0.1711412 0.745986,0.4794058 0.916111,0.9164274 0.06502,0.1670271 0.07681,0.243307 0.0777,0.5027288 0.0012,0.3502571 -0.05756,0.5615393 -0.234005,0.8413564 -0.06876,0.1090457 -1.38738,1.4488343 -3.959272,4.0228387 l -3.856175,3.8593408 -1.595196,0.531436 c -0.877358,0.29229 -1.6048951,0.531436 -1.6167488,0.531436 -0.011854,0 -0.021552,-0.0097 -0.021552,-0.02155 z"
     id="path6166" />
  <path
     style="fill:#ffffff;fill-opacity:1;stroke-width:0.0291262"
     d="M 3.7230342,20.943649 C 3.4664227,20.863118 3.209622,20.63327 3.0920648,20.378903 L 3.0291262,20.242718 V 12.495146 4.7475728 l 0.0854,-0.1686547 C 3.2185546,4.3734766 3.4005676,4.2002925 3.6211123,4.0969051 l 0.1652955,-0.077488 4.1329313,-0.00787 c 3.6647349,-0.00698 4.1530679,-0.00272 4.3106799,0.037537 0.28593,0.073037 0.509204,0.2519648 0.653527,0.5237278 0.06815,0.1283288 0.0773,0.1785055 0.07703,0.4223301 -2.62e-4,0.229298 -0.01174,0.2998314 -0.06704,0.4117318 -0.107575,0.2176845 -0.252499,0.3637307 -0.464516,0.4681129 l -0.194755,0.095883 -3.6195566,0.00773 -3.6195568,0.00773 v 6.5092633 6.509263 h 6.5092634 6.509263 l 0.0077,-3.619556 0.0077,-3.619557 0.09588,-0.194755 c 0.104382,-0.212017 0.250428,-0.356941 0.468113,-0.464516 0.1119,-0.0553 0.182433,-0.06678 0.411731,-0.06704 0.244211,-2.62e-4 0.294113,0.0089 0.425003,0.0778 0.200092,0.105389 0.430091,0.361965 0.497302,0.554767 0.05086,0.145886 0.05342,0.354742 0.05342,4.347423 v 4.194175 l -0.07749,0.165296 c -0.103387,0.220544 -0.276572,0.402557 -0.482013,0.506585 l -0.168655,0.0854 -7.703883,0.0055 c -6.2832354,0.0045 -7.7263124,-0.0016 -7.8255098,-0.0327 z"
     id="path6205" />
  <path
     style="fill:#ffffff;fill-opacity:1;stroke-width:0.0291262"
     d="M 3.7230342,20.943649 C 3.4664227,20.863118 3.209622,20.63327 3.0920648,20.378903 L 3.0291262,20.242718 V 12.495146 4.7475728 l 0.0854,-0.1686547 C 3.2185546,4.3734766 3.4005676,4.2002925 3.6211123,4.0969051 l 0.1652955,-0.077488 4.1333012,-0.00777 c 3.661201,-0.00688 4.153561,-0.0026 4.31068,0.037537 0.285553,0.07294 0.508901,0.2519966 0.653157,0.523633 0.06801,0.1280663 0.07736,0.1790043 0.07748,0.4223301 1.16e-4,0.2284849 -0.0113,0.2999209 -0.06553,0.4099681 -0.106724,0.2165747 -0.254668,0.3655963 -0.466478,0.4698766 l -0.194755,0.095883 -3.6195566,0.00773 -3.6195568,0.00773 v 6.5092631 6.509263 h 6.5092634 6.509263 l 0.0077,-3.619556 0.0077,-3.619557 0.09588,-0.194755 c 0.10428,-0.21181 0.253302,-0.359754 0.469876,-0.466478 0.110048,-0.05423 0.181483,-0.06565 0.409968,-0.06553 0.243711,1.17e-4 0.29438,0.0095 0.425003,0.07825 0.200092,0.105389 0.430091,0.361965 0.497302,0.554767 0.05086,0.145886 0.05342,0.354742 0.05342,4.347423 V 20.2136 l -0.07749,0.165296 c -0.103387,0.220544 -0.276572,0.402557 -0.482013,0.506585 l -0.168655,0.0854 -7.703883,0.0055 c -6.2832354,0.0045 -7.7263124,-0.0016 -7.8255098,-0.0327 z"
     id="path10524" />
</svg>
